<svg version="1.1" id="Layer_1" xmlns="http://www.w3.org/2000/svg" xmlns:xlink="http://www.w3.org/1999/xlink" x="0px" y="0px"
	 width="100%" viewBox="0 0 1024 1024" enable-background="new 0 0 1024 1024" xml:space="preserve">
<path fill="currentcolor" opacity="1.000000" stroke="none"  
	d="
M863.333374,602.000122 
	C863.332947,635.166687 863.469604,667.833923 863.298340,700.499573 
	C863.051147,747.664978 846.467957,788.005127 811.691589,820.200012 
	C786.759277,843.281738 757.218140,856.765991 723.293213,860.527832 
	C717.129089,861.211426 710.999512,861.329346 704.846924,861.330383 
	C575.514099,861.353149 446.178223,861.867798 316.849823,861.106873 
	C255.919403,860.748352 211.680008,830.518066 182.064636,778.315796 
	C168.828918,754.985474 163.612167,729.321960 163.624390,702.515991 
	C163.682693,574.683167 162.983093,446.845306 163.943085,319.019653 
	C164.397415,258.524292 191.736893,212.025528 245.025558,182.086487 
	C263.804169,171.536133 284.319244,165.393219 305.934021,164.766937 
	C376.405579,162.725006 446.901337,164.192047 517.386414,163.932144 
	C580.218384,163.700470 643.052368,163.712097 705.884583,163.903061 
	C780.298340,164.129227 839.565613,211.448776 857.531189,278.622559 
	C861.372559,292.985809 863.275818,307.654663 863.287109,322.503021 
	C863.358093,415.501984 863.328979,508.501038 863.333374,602.000122 
M828.603210,748.171570 
	C833.770935,733.629639 836.591431,718.584900 836.606750,703.211609 
	C836.733826,576.061768 836.670532,448.911774 836.699829,321.761810 
	C836.701721,313.408264 835.898193,305.105103 834.405945,296.951080 
	C823.740417,238.670898 773.997925,191.140564 708.388977,191.241013 
	C578.073059,191.440506 447.756714,191.322693 317.440582,191.265503 
	C307.734528,191.261246 298.194611,192.288483 288.745422,194.359497 
	C234.925400,206.155319 191.106812,256.290771 190.635086,314.540710 
	C189.587936,443.848389 190.252472,573.169800 190.167374,702.485596 
	C190.159668,714.198669 191.597763,725.684692 194.405609,737.034668 
	C208.421051,793.688354 260.648773,834.641602 318.963898,834.645386 
	C448.280243,834.653809 577.596558,834.657349 706.912903,834.624146 
	C715.236816,834.622009 723.588257,834.027588 731.699646,832.241516 
	C778.852051,821.858948 810.578003,793.444580 828.603210,748.171570 
z"/>
<path fill="currentcolor" opacity="1.000000" stroke="none" 
	d="
M396.000061,248.721878 
	C463.493164,248.727463 530.486267,248.702881 597.479370,248.756653 
	C620.934082,248.775467 638.777954,262.512421 643.793640,284.350342 
	C644.757385,288.546417 645.281555,292.847015 645.268860,297.207245 
	C645.211487,316.871735 645.146423,336.537231 645.302673,356.200623 
	C645.344482,361.464417 643.601501,365.519501 639.609375,368.864044 
	C636.805054,371.213440 634.369568,374.004578 631.553345,376.337677 
	C626.542542,380.488831 620.726929,378.188446 619.815674,371.768036 
	C619.583252,370.130432 619.685364,368.441071 619.684875,366.775513 
	C619.677673,343.111267 619.692322,319.447052 619.673584,295.782806 
	C619.663086,282.573059 611.868591,274.290070 598.668823,273.407806 
	C597.672791,273.341278 596.669678,273.373047 595.669861,273.373047 
	C502.179474,273.372498 408.689056,273.373779 315.198669,273.373230 
	C305.918823,273.373199 298.249115,276.381470 293.433136,284.864594 
	C290.924286,289.283813 290.948181,294.142731 290.946533,298.962708 
	C290.915466,388.786133 290.919617,478.609558 290.913177,568.432983 
	C290.909424,620.260559 290.888336,672.088074 290.911255,723.915649 
	C290.913544,729.065491 290.763336,734.277527 293.215210,739.072510 
	C297.234833,746.933350 303.165527,751.760315 312.459869,751.757629 
	C407.116730,751.730591 501.773621,751.771973 596.430481,751.729919 
	C609.881653,751.723938 619.572815,741.624512 619.630920,727.626587 
	C619.731873,703.296204 619.660828,678.965027 619.672546,654.634216 
	C619.676941,645.534119 629.666931,636.197205 638.798767,636.663452 
	C641.643494,636.808716 643.424438,638.183777 644.442566,640.785950 
	C645.191895,642.701355 645.263733,644.675781 645.263062,646.683105 
	C645.254517,673.513672 645.454163,700.346313 645.177246,727.174011 
	C645.007507,743.622498 639.127197,757.711792 625.897827,768.181274 
	C617.364136,774.934692 607.639404,778.328918 596.772400,778.330383 
	C502.782043,778.343018 408.791718,778.344971 314.801361,778.325867 
	C288.475311,778.320496 268.866333,760.874084 265.518097,734.767456 
	C265.071655,731.286377 264.708313,727.839050 264.708435,724.336914 
	C264.712555,582.018188 264.700684,439.699524 264.713593,297.380829 
	C264.715607,275.123871 278.567047,256.567993 299.709717,250.497147 
	C304.190155,249.210632 308.823669,248.707489 313.512451,248.711746 
	C340.841644,248.736526 368.170837,248.723068 396.000061,248.721878 
z"/>
<path fill="currentcolor" opacity="1.000000" stroke="none" 
	d="
M748.088379,467.901031 
	C731.236755,508.090881 710.764648,545.745850 682.581848,578.732849 
	C650.713501,616.033508 611.400146,642.113220 563.920593,655.254761 
	C558.385010,656.786865 554.967529,659.433899 552.851257,664.704590 
	C548.634949,675.205627 543.873413,685.487061 539.610229,695.970215 
	C535.866760,705.175415 530.135559,712.759277 522.227295,718.686829 
	C519.493286,720.736084 516.670654,723.653442 512.849243,721.700317 
	C508.646271,719.552002 508.421814,715.418518 508.739197,711.255676 
	C509.488464,701.428223 513.572144,692.674500 517.438843,683.828613 
	C523.769226,669.346436 531.257507,655.375671 536.278870,640.309448 
	C538.448242,633.800171 538.907410,627.548035 537.270325,620.790894 
	C533.506592,605.255615 534.059570,589.441711 535.380615,573.657898 
	C539.944458,519.130798 564.439636,473.341492 597.719055,431.367828 
	C631.766296,388.425812 672.602539,353.404266 720.114014,326.165039 
	C733.133545,318.700653 746.758545,312.463287 760.881348,307.346680 
	C763.554260,306.378296 766.253357,305.567108 769.153320,305.744263 
	C776.291809,306.180420 780.288269,310.327667 780.294006,317.783386 
	C780.309204,337.445282 778.160583,356.916870 774.912598,376.287262 
	C769.634521,407.765198 759.640259,437.858307 748.088379,467.901031 
M658.367859,570.865723 
	C661.916870,567.153931 665.465942,563.442139 669.516602,559.205688 
	C661.609314,560.910217 654.503479,562.487976 647.376587,563.964417 
	C641.078308,565.269226 637.854736,563.459412 636.222534,557.866943 
	C634.788269,552.952576 636.863342,548.916748 642.020020,546.768066 
	C644.014465,545.937012 646.070557,545.249695 648.113525,544.539856 
	C683.074463,532.393005 706.724548,508.691010 719.886169,474.280945 
	C720.496948,472.684052 721.407959,471.109985 721.109680,469.192444 
	C718.486511,469.489288 716.902771,471.091003 715.070129,472.181396 
	C708.342102,476.184601 701.637695,480.280151 694.087891,482.553955 
	C690.181824,483.730377 686.775085,482.285797 684.596863,478.868866 
	C682.410278,475.438721 682.542175,471.831848 685.353760,468.740601 
	C686.674133,467.288940 688.332520,466.046722 690.040405,465.060516 
	C706.229736,455.712250 718.033569,442.116302 727.469971,426.300354 
	C740.994385,403.632904 748.040100,378.762848 751.463135,352.817200 
	C752.042175,348.428040 753.776489,343.794891 751.838501,338.653931 
	C743.211548,342.049805 735.331726,346.305634 727.619995,350.812927 
	C692.069824,371.591217 661.010254,397.838654 633.660767,428.539673 
	C615.216370,449.244385 598.427917,471.172394 585.073181,495.560547 
	C571.238403,520.825378 562.805786,547.874451 559.622986,576.450378 
	C558.966675,582.342712 557.145569,588.465210 559.182739,595.316284 
	C562.287476,591.428528 563.117310,587.289001 564.877808,583.631653 
	C590.886536,529.598145 622.337646,479.171783 663.256226,435.011810 
	C667.561279,430.365723 671.914612,425.743774 676.930725,421.853394 
	C681.664185,418.182251 687.311462,418.965790 691.080994,423.573792 
	C695.416565,428.873718 695.128113,433.544281 689.660156,438.993683 
	C674.175598,454.425842 659.769104,470.802551 646.462341,488.133392 
	C616.148926,527.613953 593.211609,571.395264 572.080139,616.214600 
	C570.422729,619.729797 568.418701,623.180298 568.152588,627.410889 
	C588.905945,621.777283 628.474670,601.497375 658.367859,570.865723 
z"/>
<path fill="currentcolor" opacity="1.000000" stroke="none" 
	d="
M327.175354,334.464661 
	C329.324707,325.997772 333.723785,322.794891 343.036774,322.790466 
	C384.501038,322.770782 425.965332,322.781891 467.429596,322.783722 
	C489.577179,322.784698 511.724792,322.784943 533.872375,322.800781 
	C535.700684,322.802094 537.555664,322.743683 539.352539,323.015381 
	C547.743042,324.284119 551.824890,329.217438 551.330200,337.324554 
	C550.896118,344.438660 545.378906,349.321564 537.437195,349.327728 
	C479.154053,349.373077 420.870880,349.371674 362.587738,349.383484 
	C355.593750,349.384918 348.599487,349.416443 341.605865,349.363892 
	C332.250214,349.293579 327.402039,344.419373 327.175354,334.464661 
z"/>
<path fill="currentcolor" opacity="1.000000" stroke="none" 
	d="
M462.000000,378.853821 
	C474.307129,379.214203 486.161499,377.943359 497.921539,379.550446 
	C504.734161,380.481445 509.237457,386.135223 509.062988,392.727081 
	C508.895142,399.068848 504.317352,404.300934 497.736359,405.404266 
	C495.125641,405.841980 492.444519,406.037292 489.795105,406.040619 
	C440.981445,406.102325 392.167786,406.128387 343.354095,406.136536 
	C331.272552,406.138550 324.159027,397.722076 327.754181,387.776947 
	C329.836273,382.017242 335.153320,378.864655 343.047302,378.856232 
	C367.037659,378.830658 391.028046,378.844208 415.018433,378.845154 
	C430.512299,378.845764 446.006134,378.850983 462.000000,378.853821 
z"/>
<path fill="currentcolor" opacity="1.000000" stroke="none" 
	d="
M430.000000,543.083252 
	C400.700897,543.076965 371.901733,543.097900 343.102722,543.048401 
	C334.088165,543.032959 329.218170,539.559692 327.422729,532.161804 
	C325.475769,524.139709 330.909851,516.722900 339.167358,516.708069 
	C385.778595,516.624329 432.390076,516.645996 479.001404,516.697388 
	C485.235657,516.704285 489.795563,521.065674 490.316742,527.065735 
	C490.978546,534.684753 487.068054,540.805054 480.372864,542.239502 
	C477.792389,542.792358 475.095795,543.002319 472.450012,543.018066 
	C458.467072,543.101379 444.483398,543.072998 430.000000,543.083252 
z"/>
<path fill="currentcolor" opacity="1.000000" stroke="none" 
	d="
M424.555939,715.554321 
	C418.762390,710.645020 415.876617,704.694702 415.579803,697.474365 
	C415.552612,696.812927 415.412781,696.153992 415.298218,695.498596 
	C414.095825,688.620361 413.259491,688.107117 407.485992,691.881226 
	C395.779175,699.534058 384.233551,707.433167 372.567566,715.149170 
	C370.501099,716.515991 368.261200,717.720093 365.948395,718.594727 
	C360.758057,720.557617 355.381592,718.727844 352.863464,714.404114 
	C350.369995,710.122742 351.189270,703.897522 355.773743,700.989563 
	C370.403534,691.709900 383.395721,680.046814 398.622650,671.683472 
	C404.050995,668.701965 409.868317,666.305969 416.212341,667.152222 
	C429.913818,668.979980 437.679779,678.009644 438.313354,692.329529 
	C438.648315,699.899231 440.352356,701.088745 447.546265,698.389587 
	C455.643921,695.351318 463.662262,692.102173 471.736450,689.000427 
	C475.050446,687.727295 478.519440,687.370361 482.051575,687.693359 
	C487.926880,688.230652 492.152283,692.440491 492.355316,697.939209 
	C492.578064,703.971863 489.394165,707.119995 482.833527,708.441223 
	C475.137329,709.991272 468.040680,713.429199 460.836609,716.447266 
	C452.455170,719.958618 444.051025,722.951660 434.743927,720.381165 
	C431.165833,719.392883 427.878448,717.878784 424.555939,715.554321 
z"/>
<path fill="currentcolor" opacity="1.000000" stroke="none" 
	d="
M339.581604,462.000061 
	C330.822937,460.098267 326.639557,455.594177 326.851440,448.705170 
	C327.081238,441.233459 332.227448,435.823212 340.946930,435.564148 
	C359.059723,435.026001 377.192505,434.957703 395.315765,435.029816 
	C413.781189,435.103302 432.255280,434.502655 450.713776,435.587769 
	C457.846771,436.007141 462.494141,439.960510 463.284790,446.601135 
	C464.103027,453.473663 459.963348,459.627258 453.268768,461.212524 
	C451.020508,461.744934 448.665833,462.075562 446.359406,462.077850 
	C410.913177,462.113342 375.466858,462.079315 339.581604,462.000061 
z"/>
<path fill="currentcolor" opacity="1.000000" stroke="none" 
	d="
M350.035736,598.024170 
	C345.551849,597.978394 341.560883,598.249512 337.590302,597.437683 
	C330.959991,596.082092 326.207092,590.194092 326.815887,583.886902 
	C327.508698,576.709534 332.553131,571.673706 339.549255,571.661316 
	C376.704498,571.595459 413.859955,571.595154 451.015228,571.654236 
	C458.075775,571.665405 462.706024,576.320374 463.293030,583.516846 
	C463.838104,590.198975 459.383698,596.244751 452.950012,597.336365 
	C450.498169,597.752319 447.985168,597.993652 445.499634,597.997009 
	C413.842865,598.039673 382.186005,598.024536 350.035736,598.024170 
z"/>
</svg>